<svg width="51" height="51" viewBox="0 0 51 51" fill="none" xmlns="http://www.w3.org/2000/svg">
<g id="24 / basic / user">
<path id="icon" fill-rule="evenodd" clip-rule="evenodd" d="M25.5 48.875C12.5903 48.875 2.125 38.4097 2.125 25.5C2.125 12.5903 12.5903 2.125 25.5 2.125C38.4097 2.125 48.875 12.5903 48.875 25.5C48.875 38.4097 38.4097 48.875 25.5 48.875ZM41.2239 36.3899C43.3683 33.2994 44.625 29.5465 44.625 25.5C44.625 14.9376 36.0624 6.375 25.5 6.375C14.9376 6.375 6.375 14.9376 6.375 25.5C6.375 29.5465 7.63169 33.2994 9.77607 36.3899C12.167 33.2317 17.7847 31.8757 25.4942 31.875C20.7388 31.8723 17 28.5302 17 21.25C17 16.481 20.3556 12.75 25.5 12.75C30.6302 12.75 34 16.8334 34 21.675C34 28.6442 30.2134 31.875 25.5 31.875C33.2125 31.875 38.8324 33.2309 41.2239 36.3899ZM38.1749 39.822C37.553 37.5856 33.0849 36.125 25.5 36.125C17.9151 36.125 13.447 37.5856 12.8251 39.822C16.1995 42.8106 20.6379 44.625 25.5 44.625C30.3621 44.625 34.8005 42.8106 38.1749 39.822ZM21.25 21.25C21.25 26.0722 22.9887 27.625 25.5 27.625C28.0026 27.625 29.75 26.1341 29.75 21.675C29.75 19.0196 28.0833 17 25.5 17C22.8092 17 21.25 18.7336 21.25 21.25Z" fill="white"/>
</g>
</svg>
